8888888888                888      8888888888                       
888                       888      888                              
888                       888      888                              
8888888  .d88b.   .d88b.  888      8888888 888d888 .d88b.   .d88b.  
888     d8P  Y8b d8P  Y8b 888      888     888P"  d8P  Y8b d8P  Y8b 
888     88888888 88888888 888      888     888    88888888 88888888 
888     Y8b.     Y8b.     888      888     888    Y8b.     Y8b.     
888      "Y8888   "Y8888  888      888     888     "Y8888   "Y8888  


Genre:Action | Fantasy | Thriller 
Language:English
IMDb: 
http://www.imdb.com/title/tt1071875
Source:1080p.BluRay.X264-SPARKS Thanks!
Encoder:Tony

Format : MPEG-4
Format profile : Base Media
Codec ID : isom
File size : 2.23 GiB
Duration : 1h 35mn
Overall bit rate mode : Variable
Overall bit rate : 3 340 Kbps

Video
ID : 1
Format : AVC
Format/Info : Advanced Video Codec
Format profile : High@L5.1
Format settings, CABAC : Yes
Format settings, ReFrames : 3 frames
Codec ID : avc1
Codec ID/Info : Advanced Video Coding
Duration : 1h 35mn
Bit rate : 3 000 Kbps
Maximum bit rate : 19.2 Mbps
Width : 1 280 pixels
Height : 536 pixels
Display aspect ratio : 2.40:1
Frame rate mode : Constant
Frame rate : 23.976 fps
Color space : YUV
Chroma subsampling : 4:2:0
Bit depth : 8 bits
Scan type : Progressive
Bits/(Pixel*Frame) : 0.182
Stream size : 1.93 GiB (87%)
Writing library : x264 core 75 r1251kMod e553a4c

Audio
ID : 2
Format : AAC
Format/Info : Advanced Audio Codec
Format profile : LC
Codec ID : 40
Duration : 1h 35mn
Bit rate mode : Variable
Bit rate : 445 Kbps
Maximum bit rate : 554 Kbps
Channel(s) : 6 channels
Channel positions : Front: L C R, Side: L R, LFE
Sampling rate : 48.0 KHz
Compression mode : Lossy
Stream size : 304 MiB (13%)

Plot:
As Johnny Blaze hides out in Eastern Europe, he is called upon to stop the devil, who is trying to take human form.


Screen Shots:
          
http://img262.imageshack.us/img262/5407/vlcsnap2012052607h42m32.png
 
http://img96.imageshack.us/img96/3109/vlcsnap2012052607h43m08.png
 
http://img37.imageshack.us/img37/4230/vlcsnap2012052607h44m10.png
 
http://img213.imageshack.us/img213/4817/vlcsnap2012052607h48m43.png
 
http://img834.imageshack.us/img834/2571/vlcsnap2012052607h43m56.png
 
http://img140.imageshack.us/img140/7784/vlcsnap2012052607h42m42.png


8888888888                888      8888888888                       
888                       888      888                              
888                       888      888                              
8888888  .d88b.   .d88b.  888      8888888 888d888 .d88b.   .d88b.  
888     d8P  Y8b d8P  Y8b 888      888     888P"  d8P  Y8b d8P  Y8b 
888     88888888 88888888 888      888     888    88888888 88888888 
888     Y8b.     Y8b.     888      888     888    Y8b.     Y8b.     
888      "Y8888   "Y8888  888      888     888     "Y8888   "Y8888  